<?xml version="1.0" encoding="UTF-8" standalone="no"?>
<svg
   xmlns:dc="http://purl.org/dc/elements/1.1/"
   xmlns:cc="http://creativecommons.org/ns#"
   xmlns:rdf="http://www.w3.org/1999/02/22-rdf-syntax-ns#"
   xmlns:svg="http://www.w3.org/2000/svg"
   xmlns="http://www.w3.org/2000/svg"
   xmlns:xlink="http://www.w3.org/1999/xlink"
   xmlns:sodipodi="http://sodipodi.sourceforge.net/DTD/sodipodi-0.dtd"
   xmlns:inkscape="http://www.inkscape.org/namespaces/inkscape"
   sodipodi:docname="pluginIcon.svg"
   inkscape:version="1.0 (4035a4fb49, 2020-05-01)"
   id="svg8"
   version="1.1"
   viewBox="0 0 512 512"
   height="512mm"
   width="512mm">
  <defs
     id="defs2">
    <linearGradient
       id="linearGradient903"
       inkscape:collect="always">
      <stop
         id="stop899"
         offset="0"
         style="stop-color:#2b006b;stop-opacity:1;" />
      <stop
         id="stop901"
         offset="1"
         style="stop-color:#8b00a0;stop-opacity:1" />
    </linearGradient>
    <rect
       id="rect22"
       height="225.2738"
       width="444.49999"
       y="100.54166"
       x="115.66071" />
    <rect
       x="115.66071"
       y="100.54166"
       width="444.5"
       height="225.2738"
       id="rect22-5" />
    <rect
       x="115.66071"
       y="100.54166"
       width="444.5"
       height="225.2738"
       id="rect51" />
    <linearGradient
       gradientTransform="matrix(1.107374,0,0,1.1464347,-29.040054,-22.628021)"
       gradientUnits="userSpaceOnUse"
       y2="-2.6458194"
       x2="20.398787"
       y1="410.86011"
       x1="385.54761"
       id="linearGradient905"
       xlink:href="#linearGradient903"
       inkscape:collect="always" />
  </defs>
  <sodipodi:namedview
     inkscape:window-maximized="1"
     inkscape:window-y="-8"
     inkscape:window-x="-8"
     inkscape:window-height="1417"
     inkscape:window-width="2481"
     showgrid="false"
     inkscape:document-rotation="0"
     inkscape:current-layer="layer1"
     inkscape:document-units="px"
     inkscape:cy="560"
     inkscape:cx="285.71429"
     inkscape:zoom="0.35"
     inkscape:pageshadow="2"
     inkscape:pageopacity="0.0"
     borderopacity="1.0"
     bordercolor="#666666"
     pagecolor="#ffffff"
     id="base" />
  <metadata
     id="metadata5">
    <rdf:RDF>
      <cc:Work
         rdf:about="">
        <dc:format>image/svg+xml</dc:format>
        <dc:type
           rdf:resource="http://purl.org/dc/dcmitype/StillImage" />
        <dc:title></dc:title>
      </cc:Work>
    </rdf:RDF>
  </metadata>
  <g
     id="layer1"
     inkscape:groupmode="layer"
     inkscape:label="Layer 1">
    <rect
       y="10.304681"
       x="10.304681"
       height="491.39062"
       width="491.39062"
       id="rect18"
       style="fill:url(#linearGradient905);fill-opacity:1;stroke:#150a31;stroke-width:3.38021;stroke-linejoin:round;stroke-opacity:1" />
    <g
       style="shape-inside:url(#rect22);fill:#ffffff;fill-opacity:1"
       id="text20"
       transform="matrix(2.165394,0,0,2.165394,-17.083498,-62.446886)"
       aria-label="P">
      <path
         id="path907"
         style="letter-spacing:-26.4583px;word-spacing:-0.015875px;fill:#ffffff"
         d="m 206.35118,163.33217 c 0,-23.52756 -16.52628,-34.43653 -43.22884,-34.43653 h -28.65641 v 112.10192 h 14.16538 v -41.60064 h 14.32821 c 25.31858,0 43.39166,-9.85064 43.39166,-36.06475 z m -15.14231,0.16282 c 0,19.21283 -11.31602,24.50449 -26.94679,24.50449 h -15.63077 v -47.86923 h 16.20064 c 15.22372,0 26.37692,6.02436 26.37692,23.36474 z" />
    </g>
    <g
       style="shape-inside:url(#rect22-5);fill:#ffffff;fill-opacity:1;stroke:none"
       id="text20-4"
       transform="matrix(1.446147,0,0,1.446147,148.81345,214.25013)"
       aria-label="rpl">
      <path
         id="path910"
         style="font-style:normal;font-variant:normal;font-weight:normal;font-stretch:normal;font-size:79.375px;font-family:'FiraCode NF';-inkscape-font-specification:'FiraCode NF';baseline-shift:baseline;fill:#ffffff"
         d="m 152.78323,126.19542 c -7.77468,0 -12.08942,4.02981 -15.38654,11.0718 l -1.26185,-10.13558 h -11.8859 v 5.25096 h 6.67564 v 32.36058 h -6.67564 v 5.25096 h 22.225 v -5.25096 h -8.7109 v -18.15449 c 2.84936,-9.44359 7.48974,-14.08397 14.12468,-14.08397 h 0.36635 v 9.11795 h 5.6173 l 0.97693,-14.49103 c -1.95385,-0.56987 -3.66346,-0.93622 -6.06507,-0.93622 z" />
      <path
         id="path912"
         style="font-style:normal;font-variant:normal;font-weight:normal;font-stretch:normal;font-size:79.375px;font-family:'FiraCode NF';-inkscape-font-specification:'FiraCode NF';baseline-shift:baseline;fill:#ffffff"
         d="m 180.20393,126.23613 c -5.16955,0 -9.64712,2.48301 -12.78141,6.87916 l -0.56987,-5.98365 h -5.82084 v 60.12147 l 6.83846,-0.8548 v -20.43398 c 2.84936,3.33782 6.63494,4.96603 11.31603,4.96603 11.15321,0 16.52628,-9.40289 16.52628,-22.38782 0,-13.43269 -4.07051,-22.30641 -15.50865,-22.30641 z m -1.62821,5.49519 c 6.71635,0 9.80994,5.5766 9.80994,16.77051 0,11.43814 -3.58205,16.72981 -10.70545,16.72981 -4.07051,0 -7.57115,-2.03526 -9.80994,-5.37308 v -21.24807 c 2.3202,-3.45994 5.94295,-6.87917 10.70545,-6.87917 z" />
      <path
         id="path914"
         style="font-style:normal;font-variant:normal;font-weight:normal;font-stretch:normal;font-size:79.375px;font-family:'FiraCode NF';-inkscape-font-specification:'FiraCode NF';baseline-shift:baseline;fill:#ffffff"
         d="m 214.91084,109.87267 h -19.98622 v 5.41378 h 13.14776 v 43.75801 c 0,7.44904 5.16955,11.8859 12.78141,11.8859 4.31474,0 7.85609,-1.05833 10.17628,-2.19808 l -1.83173,-5.00673 c -2.32019,0.93622 -4.64038,1.50609 -7.20481,1.50609 -4.15192,0 -7.08269,-1.5875 -7.08269,-5.82083 z" />
    </g>
  </g>
</svg>
